<?xml version="1.0" encoding="UTF-8"?>
<svg version="1.1" xmlns="http://www.w3.org/2000/svg" width="1080" height="1080">
<path d="M0 0 C356.4 0 712.8 0 1080 0 C1080 356.4 1080 712.8 1080 1080 C723.6 1080 367.2 1080 0 1080 C0 723.6 0 367.2 0 0 Z " fill="#FEFEFE" transform="translate(0,0)"/>
<path d="M0 0 C0.33 0 0.66 0 1 0 C1.01213028 1.09541107 1.01213028 1.09541107 1.02450562 2.21295166 C1.10248393 9.09900575 1.18978448 15.98488553 1.28752708 22.87068558 C1.33744825 26.41065816 1.38377843 29.95060151 1.421875 33.49072266 C1.46584242 37.56171388 1.52547664 41.63234509 1.5859375 45.703125 C1.59748871 46.97303284 1.60903992 48.24294067 1.62094116 49.55133057 C1.64081085 50.73225281 1.66068054 51.91317505 1.68115234 53.12988281 C1.69447601 54.16912903 1.70779968 55.20837524 1.7215271 56.27911377 C2.00901294 59.08806309 2.38620782 60.69343866 4 63 C5.32 63.66 6.64 64.32 8 65 C8 49.82 8 34.64 8 19 C13.94 19 19.88 19 26 19 C26 34.51 26 50.02 26 66 C15.605 66.495 15.605 66.495 5 67 C3.515 67.495 3.515 67.495 2 68 C-2.17440945 68.4064968 -5.86568997 68.42851712 -9.8125 66.9375 C-13.67095844 63.52000823 -16.11146928 59.1070012 -17 54 C-17.08332859 51.3083968 -17.11629936 48.6439167 -17.09765625 45.953125 C-17.0962413 45.18192322 -17.09482635 44.41072144 -17.09336853 43.6161499 C-17.08778534 41.16072662 -17.07523595 38.70539558 -17.0625 36.25 C-17.05748283 34.58203257 -17.0529203 32.91406371 -17.04882812 31.24609375 C-17.03782141 27.16402713 -17.02056836 23.08202919 -17 19 C-16.38366699 18.67169189 -15.76733398 18.34338379 -15.13232422 18.00512695 C-14.3229541 17.56644287 -13.51358398 17.12775879 -12.6796875 16.67578125 C-11.87772949 16.24434814 -11.07577148 15.81291504 -10.24951172 15.3684082 C-4.29447971 11.74588222 -2.0999995 6.41052479 0 0 Z " fill="#FEBE5D" transform="translate(551,491)"/>
<path d="M0 0 C5.94 0 11.88 0 18 0 C18 16.17 18 32.34 18 49 C12.06 49 6.12 49 0 49 C0 32.83 0 16.66 0 0 Z " fill="#343434" transform="translate(397,509)"/>
<path d="M0 0 C3.36895059 2.77156966 5.53990093 6.39772412 6.24467468 10.69212341 C6.35462658 13.06256881 6.34510436 15.40123231 6.28515625 17.7734375 C6.27949646 18.62917862 6.27383667 19.48491974 6.26800537 20.36659241 C6.24576632 23.07701586 6.1955955 25.78607566 6.14453125 28.49609375 C6.12445003 30.34307975 6.10620211 32.19008665 6.08984375 34.03710938 C6.04935791 38.54520794 5.97104956 43.05039005 5.89453125 47.55859375 C-0.04546875 47.55859375 -5.98546875 47.55859375 -12.10546875 47.55859375 C-12.43546875 33.36859375 -12.76546875 19.17859375 -13.10546875 4.55859375 C-15.41546875 3.56859375 -17.72546875 2.57859375 -20.10546875 1.55859375 C-19.10546875 -0.44140625 -19.10546875 -0.44140625 -16.48046875 -1.56640625 C-10.18238739 -3.19924216 -5.79735693 -2.65662996 0 0 Z " fill="#343434" transform="translate(678.10546875,510.44140625)"/>
<path d="M0 0 C5.94 0 11.88 0 18 0 C18 15.51 18 31.02 18 47 C12.06 47 6.12 47 0 47 C0 31.49 0 15.98 0 0 Z " fill="#2E2E2E" transform="translate(559,510)"/>
<path d="M0 0 C3.35574462 2.96554176 6.25494024 5.83114387 7.0345459 10.41595459 C7.14877375 12.78497763 7.13766673 15.12117761 7.078125 17.4921875 C7.07246521 18.34934357 7.06680542 19.20649963 7.06097412 20.08963013 C7.03869639 22.8103368 6.98851774 25.52969568 6.9375 28.25 C6.9174238 30.10154339 6.899175 31.95310756 6.8828125 33.8046875 C6.84227158 38.32905395 6.76396992 42.85052985 6.6875 47.375 C1.0775 47.375 -4.5325 47.375 -10.3125 47.375 C-10.32708252 46.18422852 -10.34166504 44.99345703 -10.35668945 43.76660156 C-10.41469235 39.34572423 -10.49192515 34.92535519 -10.57495117 30.50488281 C-10.60819114 28.59220636 -10.63622599 26.67943203 -10.65893555 24.76660156 C-10.69249869 22.01585206 -10.74481489 19.26599868 -10.80078125 16.515625 C-10.80717117 15.66131897 -10.8135611 14.80701294 -10.82014465 13.92681885 C-10.9071824 10.4067831 -10.9755712 8.00370534 -12.65698242 4.86621094 C-14.35180972 3.13969334 -14.35180972 3.13969334 -17.3125 2.375 C-17.3125 1.715 -17.3125 1.055 -17.3125 0.375 C-11.58933642 -2.57889088 -5.74861788 -2.8200767 0 0 Z " fill="#2D2D2D" transform="translate(439.3125,509.625)"/>
<path d="M0 0 C3.84836018 1.9635831 7.04439698 4.19114176 9.08959961 8.0625 C10.31963749 12.03134306 10.24824172 15.67108851 10.1953125 19.80078125 C10.1924826 20.63715622 10.18965271 21.47353119 10.18673706 22.33525085 C10.1755832 24.99448226 10.15048763 27.65337118 10.125 30.3125 C10.11496399 32.12043783 10.10583923 33.92838096 10.09765625 35.73632812 C10.07736501 40.15778872 10.03820776 44.57851305 10 49 C4.39 49 -1.22 49 -7 49 C-7.01458252 47.77369873 -7.02916504 46.54739746 -7.04418945 45.28393555 C-7.10212083 40.73822734 -7.17935381 36.19301719 -7.26245117 31.64770508 C-7.29572486 29.67968829 -7.32374915 27.71157551 -7.34643555 25.7434082 C-7.37993678 22.91576188 -7.43224963 20.08899718 -7.48828125 17.26171875 C-7.49467117 16.38037766 -7.5010611 15.49903656 -7.50764465 14.59098816 C-7.53733589 13.3600518 -7.53733589 13.3600518 -7.56762695 12.10424805 C-7.57873001 11.38254929 -7.58983307 10.66085052 -7.60127258 9.9172821 C-8.11854319 7.42998467 -9.0222607 6.55551528 -11 5 C-11.99 4.67 -12.98 4.34 -14 4 C-14 3.34 -14 2.68 -14 2 C-9.4615911 -0.3424046 -4.99282155 -0.9537782 0 0 Z " fill="#2D2D2D" transform="translate(468,508)"/>
<path d="M0 0 C5.61 0 11.22 0 17 0 C17 15.51 17 31.02 17 47 C11.39 47 5.78 47 0 47 C0 31.49 0 15.98 0 0 Z " fill="#2A2A2A" transform="translate(635,510)"/>
<path d="M0 0 C-0.00333092 0.82899055 -0.00333092 0.82899055 -0.00672913 1.67472839 C-0.02887515 7.43361768 -0.04394553 13.19249485 -0.05493164 18.95141602 C-0.05995629 21.09985852 -0.06677708 23.2482976 -0.07543945 25.39672852 C-0.08758678 28.4871505 -0.09324705 31.57752722 -0.09765625 34.66796875 C-0.10281754 35.62648239 -0.10797882 36.58499603 -0.11329651 37.57255554 C-0.11337204 38.47311172 -0.11344757 39.37366791 -0.11352539 40.30151367 C-0.11685631 41.48398933 -0.11685631 41.48398933 -0.12025452 42.69035339 C0.01063184 45.20419855 0.45179104 47.54610177 1 50 C-6.16089809 49.13201235 -11.34169133 45.42037886 -15.7109375 39.90625 C-20.10105986 33.41419027 -20.86544589 26.7197773 -20 19 C-19.2709196 16.35646359 -18.32476748 14.45327311 -17 12 C-16.2265625 10.5459375 -16.2265625 10.5459375 -15.4375 9.0625 C-14.963125 8.381875 -14.48875 7.70125 -14 7 C-13.34 7 -12.68 7 -12 7 C-12 6.34 -12 5.68 -12 5 C-8.02680262 2.08632192 -5.02349182 0 0 0 Z " fill="#323232" transform="translate(501,509)"/>
<path d="M0 0 C8.24942727 2.35697922 14.87308378 7.08539606 19.3125 14.5 C22.1528505 20.62124516 22.21975568 27.98850406 20.26953125 34.40234375 C19.32289814 36.41538804 18.26840625 38.17483458 17 40 C15.948125 41.5778125 15.948125 41.5778125 14.875 43.1875 C11.51626684 47.02003565 6.74602156 49.31159233 2 51 C1.34 50.67 0.68 50.34 0 50 C0.33 49.34 0.66 48.68 1 48 C1.09425152 46.60162999 1.12793722 45.19890526 1.12939453 43.79736328 C1.13254669 42.92951202 1.13569885 42.06166077 1.13894653 41.16751099 C1.1369223 40.22793549 1.13489807 39.28835999 1.1328125 38.3203125 C1.13376923 37.35600311 1.13472595 36.39169373 1.13571167 35.39816284 C1.13639302 33.35544774 1.13454186 31.31273049 1.13037109 29.27001953 C1.12503383 26.14480709 1.13031161 23.01973913 1.13671875 19.89453125 C1.13605773 17.91145802 1.13477608 15.92838487 1.1328125 13.9453125 C1.13483673 13.00978546 1.13686096 12.07425842 1.13894653 11.11038208 C1.13579437 10.2362265 1.13264221 9.36207092 1.12939453 8.46142578 C1.12859894 7.69468536 1.12780334 6.92794495 1.12698364 6.13796997 C0.99866667 3.97755129 0.59355443 2.07679611 0 0 Z " fill="#343434" transform="translate(610,508)"/>
<path d="M0 0 C-0.33 0.99 -0.66 1.98 -1 3 C-1.09028684 4.33928739 -1.12788318 5.68257595 -1.12939453 7.02490234 C-1.13254669 7.82938812 -1.13569885 8.6338739 -1.13894653 9.46273804 C-1.1369223 10.32839386 -1.13489807 11.19404968 -1.1328125 12.0859375 C-1.13376923 12.97987213 -1.13472595 13.87380676 -1.13571167 14.79483032 C-1.13639218 16.6861376 -1.13454686 18.57744721 -1.13037109 20.46875 C-1.12503359 23.35682461 -1.13031396 26.24474281 -1.13671875 29.1328125 C-1.1360577 30.97135451 -1.13477598 32.80989642 -1.1328125 34.6484375 C-1.13483673 35.51004486 -1.13686096 36.37165222 -1.13894653 37.2593689 C-1.12321959 41.30461128 -1.01311854 45.05316382 0 49 C-7.26114136 47.01528803 -12.53105299 44.83680041 -16.69921875 38.359375 C-20.88156751 30.75510452 -22.50626549 24.85769913 -20.33203125 16.40234375 C-17.73806589 8.8923043 -13.48295397 4.18538288 -6.8125 0 C-3.92716669 -1.02589629 -2.77962118 -1.17599358 0 0 Z " fill="#303030" transform="translate(601,510)"/>
<path d="M0 0 C6.64744427 0.63308993 10.77128742 3.46011828 15.1875 8.3125 C19.91677725 14.18375496 21.6280301 19.6586058 21.421875 27.15234375 C20.70089229 32.01897704 18.5738182 35.86538243 16 40 C15.443125 40.928125 14.88625 41.85625 14.3125 42.8125 C10.78470675 46.14960172 6.58052273 48.39414061 2 50 C1.01 49.67 0.02 49.34 -1 49 C-0.34 48.01 0.32 47.02 1 46 C1.2948525 43.98344864 1.2948525 43.98344864 1.24291992 41.75976562 C1.24599655 40.90878296 1.24907318 40.05780029 1.25224304 39.18103027 C1.24505753 38.26535278 1.23787201 37.34967529 1.23046875 36.40625 C1.23001053 35.46317993 1.22955231 34.52010986 1.2290802 33.54846191 C1.22605925 31.55459332 1.21817764 29.56072706 1.20581055 27.56689453 C1.1875714 24.51195937 1.18530078 21.45732764 1.18554688 18.40234375 C1.18063088 16.46614321 1.17480221 14.52994472 1.16796875 12.59375 C1.16685593 11.67807251 1.1657431 10.76239502 1.16459656 9.81896973 C1.15821671 8.96798706 1.15183685 8.11700439 1.14526367 7.24023438 C1.14145187 6.49205444 1.13764008 5.74387451 1.13371277 4.97302246 C1.06858948 2.78683771 1.06858948 2.78683771 0 0 Z " fill="#323232" transform="translate(511,509)"/>
<path d="M0 0 C2.9375 1.5 2.9375 1.5 5 4 C5.66438067 8.65066471 5.58851572 10.82296856 3.5 15 C0.45945969 17.43243225 -1.2821575 17.69390213 -5.09375 17.40234375 C-7 17 -7 17 -9.5 15.625 C-11.75975802 11.67042347 -12.00769037 7.43828332 -11 3 C-7.52203645 -0.41064813 -4.78934594 -0.58816529 0 0 Z " fill="#333333" transform="translate(571,482)"/>
<path d="M0 0 C1.65 0 3.3 0 5 0 C4.67 1.32 4.34 2.64 4 4 C4.99 3.67 5.98 3.34 7 3 C7 2.01 7 1.02 7 0 C10.96 0 14.92 0 19 0 C18.01 0.495 18.01 0.495 17 1 C16.80090046 5.28064002 17.35034225 8.08206285 19 12 C19 13.32 19 14.64 19 16 C17.35 16 15.7 16 14 16 C14 15.34 14 14.68 14 14 C12.02 14.33 10.04 14.66 8 15 C7.34 14.01 6.68 13.02 6 12 C5.67 12.99 5.34 13.98 5 15 C3.68 14.67 2.36 14.34 1 14 C1.99 12.68 2.98 11.36 4 10 C3.34 10 2.68 10 2 10 C2 9.34 2 8.68 2 8 C1.34 7.67 0.68 7.34 0 7 C0 4.69 0 2.38 0 0 Z " fill="#BBBBBB" transform="translate(527,592)"/>
<path d="M0 0 C3 0.25 3 0.25 5 2.25 C4.625 5.875 4.625 5.875 4 9.25 C0.625 9.375 0.625 9.375 -3 9.25 C-5 7.25 -5 7.25 -5.25 4.75 C-4.86630891 0.91308908 -3.76694968 0.31391247 0 0 Z " fill="#555555" transform="translate(564,569.75)"/>
<path d="M0 0 C-0.99 0.495 -0.99 0.495 -2 1 C-2.20970559 5.14093698 -2.20970559 5.14093698 -1 9 C-2.98 9.66 -4.96 10.32 -7 11 C-8.32 9.68 -9.64 8.36 -11 7 C-9.68 6.67 -8.36 6.34 -7 6 C-7 5.01 -7 4.02 -7 3 C-8.32 2.67 -9.64 2.34 -11 2 C-11 1.67 -11 1.34 -11 1 C-7.26562152 0.12132271 -3.83225427 -0.08912219 0 0 Z " fill="#D1D1D1" transform="translate(546,592)"/>
<path d="M0 0 C6.875 0.875 6.875 0.875 8 2 C8.1875 4.4375 8.1875 4.4375 8 7 C6 9 6 9 2.875 9.125 C1.451875 9.063125 1.451875 9.063125 0 9 C0 6.03 0 3.06 0 0 Z " fill="#545454" transform="translate(543,570)"/>
<path d="M0 0 C1.65 0 3.3 0 5 0 C5 0.99 5 1.98 5 3 C4.01 2.67 3.02 2.34 2 2 C1.67 2.66 1.34 3.32 1 4 C2.65 4.33 4.3 4.66 6 5 C6 6.32 6 7.64 6 9 C4.02 9 2.04 9 0 9 C-0.33 8.01 -0.66 7.02 -1 6 C-0.34 6 0.32 6 1 6 C1 6.66 1 7.32 1 8 C2.32 8 3.64 8 5 8 C5 7.34 5 6.68 5 6 C3.02 5.34 1.04 4.68 -1 4 C-0.67 2.68 -0.34 1.36 0 0 Z " fill="#5B5B5B" transform="translate(512,570)"/>
<path d="M0 0 C0.598125 0.20625 1.19625 0.4125 1.8125 0.625 C1.8125 2.625 1.8125 4.625 1.8125 6.625 C0.1625 6.625 -1.4875 6.625 -3.1875 6.625 C-3.1875 5.965 -3.1875 5.305 -3.1875 4.625 C-3.8475 4.625 -4.5075 4.625 -5.1875 4.625 C-5.1875 3.635 -5.1875 2.645 -5.1875 1.625 C-2.1875 -0.375 -2.1875 -0.375 0 0 Z " fill="#B4B4B4" transform="translate(544.1875,601.375)"/>
<path d="M0 0 C2.97 0.495 2.97 0.495 6 1 C5.67 2.65 5.34 4.3 5 6 C3.35 6 1.7 6 0 6 C0 4.02 0 2.04 0 0 Z " fill="#9B9B9B" transform="translate(547,592)"/>
<path d="M0 0 C1.2065625 0.0309375 1.2065625 0.0309375 2.4375 0.0625 C2.4375 1.7125 2.4375 3.3625 2.4375 5.0625 C0.7875 5.3925 -0.8625 5.7225 -2.5625 6.0625 C-2.94468767 4.40635343 -3.27645102 2.73792976 -3.5625 1.0625 C-2.5625 0.0625 -2.5625 0.0625 0 0 Z " fill="#F4F4F4" transform="translate(564.5625,571.9375)"/>
<path d="M0 0 C2.64 0 5.28 0 8 0 C8 0.66 8 1.32 8 2 C7.01 2 6.02 2 5 2 C5 4.31 5 6.62 5 9 C4.34 9 3.68 9 3 9 C3 6.69 3 4.38 3 2 C2.01 2 1.02 2 0 2 C0 1.34 0 0.68 0 0 Z " fill="#626262" transform="translate(521,570)"/>
<path d="M0 0 C2.475 0.495 2.475 0.495 5 1 C4.67 2.65 4.34 4.3 4 6 C2.68 6 1.36 6 0 6 C0 4.02 0 2.04 0 0 Z " fill="#E6E6E6" transform="translate(544,572)"/>
<path d="M0 0 C1.65 0 3.3 0 5 0 C4.814375 0.61875 4.62875 1.2375 4.4375 1.875 C3.76313824 4.04160178 3.76313824 4.04160178 5 6 C3.35 6 1.7 6 0 6 C0 4.02 0 2.04 0 0 Z " fill="#717171" transform="translate(527,592)"/>
<path d="M0 0 C1.32 0.33 2.64 0.66 4 1 C3.01 1.495 3.01 1.495 2 2 C2.99 2.33 3.98 2.66 5 3 C5 3.99 5 4.98 5 6 C3.35 6 1.7 6 0 6 C0 4.02 0 2.04 0 0 Z " fill="#848484" transform="translate(534,592)"/>
<path d="M0 0 C0.66 0 1.32 0 2 0 C2 1.98 2 3.96 2 6 C0.68 5.67 -0.64 5.34 -2 5 C-1.125 1.125 -1.125 1.125 0 0 Z " fill="#7E7E7E" transform="translate(550,601)"/>
<path d="M0 0 C1.32 0.66 2.64 1.32 4 2 C3.01 2.33 2.02 2.66 1 3 C-0.20882096 5.00016466 -0.20882096 5.00016466 -1 7 C-1.33 7 -1.66 7 -2 7 C-2.125 4.625 -2.125 4.625 -2 2 C-1.34 1.34 -0.68 0.68 0 0 Z " fill="#747474" transform="translate(561,570)"/>
</svg>
