<?xml version="1.0" encoding="UTF-8"?>
<svg version="1.1" xmlns="http://www.w3.org/2000/svg" width="1080" height="1080">
<path d="M0 0 C356.4 0 712.8 0 1080 0 C1080 356.4 1080 712.8 1080 1080 C723.6 1080 367.2 1080 0 1080 C0 723.6 0 367.2 0 0 Z " fill="#2B2B2B" transform="translate(0,0)"/>
<path d="M0 0 C0.33 0 0.66 0 1 0 C1.01213028 1.09541107 1.01213028 1.09541107 1.02450562 2.21295166 C1.10248393 9.09900575 1.18978448 15.98488553 1.28752708 22.87068558 C1.33744825 26.41065816 1.38377843 29.95060151 1.421875 33.49072266 C1.46584242 37.56171388 1.52547664 41.63234509 1.5859375 45.703125 C1.59748871 46.97303284 1.60903992 48.24294067 1.62094116 49.55133057 C1.64081085 50.73225281 1.66068054 51.91317505 1.68115234 53.12988281 C1.69447601 54.16912903 1.70779968 55.20837524 1.7215271 56.27911377 C2.00901294 59.08806309 2.38620782 60.69343866 4 63 C5.32 63.66 6.64 64.32 8 65 C8 49.49 8 33.98 8 18 C13.94 18 19.88 18 26 18 C26 33.84 26 49.68 26 66 C15.605 66.495 15.605 66.495 5 67 C3.515 67.495 3.515 67.495 2 68 C-2.17440945 68.4064968 -5.86568997 68.42851712 -9.8125 66.9375 C-13.71328376 63.4825201 -15.98677709 59.12640647 -17 54 C-17.08348775 51.23574767 -17.11625686 48.49786288 -17.09765625 45.734375 C-17.0962413 44.94097717 -17.09482635 44.14757935 -17.09336853 43.33013916 C-17.08778415 40.80338728 -17.07523454 38.27672496 -17.0625 35.75 C-17.05748298 34.03385545 -17.05292043 32.31770951 -17.04882812 30.6015625 C-17.03781984 26.40100731 -17.02056596 22.20051883 -17 18 C-16.16835075 17.70200752 -16.16835075 17.70200752 -15.31990051 17.397995 C-14.23306221 17.00122307 -14.23306221 17.00122307 -13.12426758 16.59643555 C-12.40483475 16.3358989 -11.68540192 16.07536224 -10.94416809 15.80693054 C-6.49025073 13.95832395 -3.93824729 10.02519792 -1.96484375 5.765625 C-1.24160803 3.8683927 -0.61141981 1.93616273 0 0 Z " fill="#F8B957" transform="translate(551,491)"/>
<path d="M0 0 C5.94 0 11.88 0 18 0 C18 16.17 18 32.34 18 49 C12.06 49 6.12 49 0 49 C0 32.83 0 16.66 0 0 Z " fill="#DBDAD5" transform="translate(397,509)"/>
<path d="M0 0 C5.94 0 11.88 0 18 0 C18 15.84 18 31.68 18 48 C12.06 48 6.12 48 0 48 C0 32.16 0 16.32 0 0 Z " fill="#DEDDD8" transform="translate(559,509)"/>
<path d="M0 0 C3.70046398 2.29683971 5.05160026 4.86579772 6.6875 8.875 C7.07515632 11.84960516 7.03842939 14.77791853 6.98046875 17.7734375 C6.97622391 18.60839752 6.97197906 19.44335754 6.96760559 20.30361938 C6.95090333 22.95275035 6.91326775 25.6011016 6.875 28.25 C6.8599422 30.05337438 6.84625571 31.85676076 6.83398438 33.66015625 C6.80358774 38.0656413 6.74485281 42.46945487 6.6875 46.875 C0.7475 46.875 -5.1925 46.875 -11.3125 46.875 C-11.8075 26.085 -11.8075 26.085 -12.3125 4.875 C-14.6225 3.885 -16.9325 2.895 -19.3125 1.875 C-18.3125 -0.125 -18.3125 -0.125 -15.75 -1.25 C-9.70704889 -2.78820574 -5.43316867 -3.10039533 0 0 Z " fill="#DDDCD7" transform="translate(677.3125,510.125)"/>
<path d="M0 0 C3.5677811 2.35149209 5.84221079 4.99692157 7.75 8.8125 C7.83698228 11.72949274 7.86551923 14.62232548 7.84765625 17.5390625 C7.8462413 18.40187836 7.84482635 19.26469421 7.84336853 20.15365601 C7.83776188 22.9149723 7.82520827 25.67620812 7.8125 28.4375 C7.80748586 30.3072905 7.8029228 32.17708226 7.79882812 34.046875 C7.7886403 38.63547277 7.76906622 43.22389608 7.75 47.8125 C2.14 47.8125 -3.47 47.8125 -9.25 47.8125 C-9.26458252 46.62172852 -9.27916504 45.43095703 -9.29418945 44.20410156 C-9.35219235 39.78322423 -9.42942515 35.36285519 -9.51245117 30.94238281 C-9.54569114 29.02970636 -9.57372599 27.11693203 -9.59643555 25.20410156 C-9.62999869 22.45335206 -9.68231489 19.70349868 -9.73828125 16.953125 C-9.74467117 16.09881897 -9.7510611 15.24451294 -9.75764465 14.36431885 C-9.8446824 10.8442831 -9.9130712 8.44120534 -11.59448242 5.30371094 C-13.28930972 3.57719334 -13.28930972 3.57719334 -16.25 2.8125 C-16.25 2.1525 -16.25 1.4925 -16.25 0.8125 C-10.76572319 -1.9296384 -5.65336293 -2.06565184 0 0 Z " fill="#E1E0DB" transform="translate(438.25,509.1875)"/>
<path d="M0 0 C3.98561154 2.62688033 6.23980531 5.28191592 7.75 9.8125 C7.8353013 12.68944671 7.86585645 15.54150182 7.84765625 18.41796875 C7.8462413 19.25717361 7.84482635 20.09637848 7.84336853 20.96101379 C7.83777215 23.64071216 7.82522035 26.3203269 7.8125 29 C7.80748453 30.81705608 7.80292171 32.63411348 7.79882812 34.45117188 C7.78865491 38.90500604 7.7690788 43.35865943 7.75 47.8125 C2.14 47.8125 -3.47 47.8125 -9.25 47.8125 C-9.26458252 46.58619873 -9.27916504 45.35989746 -9.29418945 44.09643555 C-9.35212083 39.55072734 -9.42935381 35.00551719 -9.51245117 30.46020508 C-9.54572486 28.49218829 -9.57374915 26.52407551 -9.59643555 24.5559082 C-9.62993678 21.72826188 -9.68224963 18.90149718 -9.73828125 16.07421875 C-9.74467117 15.19287766 -9.7510611 14.31153656 -9.75764465 13.40348816 C-9.78733589 12.1725518 -9.78733589 12.1725518 -9.81762695 10.91674805 C-9.82873001 10.19504929 -9.83983307 9.47335052 -9.85127258 8.7297821 C-10.36854319 6.24248467 -11.2722607 5.36801528 -13.25 3.8125 C-14.24 3.4825 -15.23 3.1525 -16.25 2.8125 C-16.25 2.1525 -16.25 1.4925 -16.25 0.8125 C-10.76572319 -1.9296384 -5.65336293 -2.06565184 0 0 Z " fill="#E1E0DB" transform="translate(470.25,509.1875)"/>
<path d="M0 0 C5.61 0 11.22 0 17 0 C17 15.51 17 31.02 17 47 C11.39 47 5.78 47 0 47 C0 31.49 0 15.98 0 0 Z " fill="#E2E2DC" transform="translate(635,510)"/>
<path d="M0 0 C-0.00333092 0.82899055 -0.00333092 0.82899055 -0.00672913 1.67472839 C-0.02887515 7.43361768 -0.04394553 13.19249485 -0.05493164 18.95141602 C-0.05995629 21.09985852 -0.06677708 23.2482976 -0.07543945 25.39672852 C-0.08758678 28.4871505 -0.09324705 31.57752722 -0.09765625 34.66796875 C-0.10281754 35.62648239 -0.10797882 36.58499603 -0.11329651 37.57255554 C-0.11337204 38.47311172 -0.11344757 39.37366791 -0.11352539 40.30151367 C-0.11685631 41.48398933 -0.11685631 41.48398933 -0.12025452 42.69035339 C0.01063184 45.20419855 0.45179104 47.54610177 1 50 C-6.16089809 49.13201235 -11.34169133 45.42037886 -15.7109375 39.90625 C-20.10801083 33.40391126 -20.84596682 26.7295872 -20 19 C-17.49563712 11.09148565 -13.24994943 5.0977975 -6 1 C-3 0 -3 0 0 0 Z " fill="#DCDBD6" transform="translate(501,509)"/>
<path d="M0 0 C7.61630683 1.96884122 12.90724621 4.67797446 17.54296875 11.15625 C21.44571446 17.89039947 22.05874915 24.34367512 21 32 C20.07310568 35.0222671 18.80267621 37.41458281 17 40 C16.278125 41.051875 15.55625 42.10375 14.8125 43.1875 C11.31251087 46.68748913 7.55828121 49.07083979 3 51 C2.01 51 1.02 51 0 51 C0.33 50.01 0.66 49.02 1 48 C1.09101144 46.56351314 1.12789354 45.12320419 1.12939453 43.68383789 C1.13254669 42.81606216 1.13569885 41.94828644 1.13894653 41.05421448 C1.1369223 40.11980026 1.13489807 39.18538605 1.1328125 38.22265625 C1.13376923 37.25976181 1.13472595 36.29686737 1.13571167 35.30479431 C1.13639226 33.26805557 1.13454638 31.23131465 1.13037109 29.19458008 C1.12502699 26.07823808 1.13031717 22.96204059 1.13671875 19.84570312 C1.13605783 17.86718718 1.13477639 15.88867133 1.1328125 13.91015625 C1.13483673 12.97776627 1.13686096 12.04537628 1.13894653 11.08473206 C1.13579437 10.21380417 1.13264221 9.34287628 1.12939453 8.44555664 C1.12859894 7.68183243 1.12780334 6.91810822 1.12698364 6.13124084 C0.99842859 3.97362608 0.59248245 2.07423993 0 0 Z " fill="#DAD9D4" transform="translate(610,508)"/>
<path d="M0 0 C-0.33 0.66 -0.66 1.32 -1 2 C-1.09884428 3.33160599 -1.13825888 4.66792268 -1.14526367 6.00317383 C-1.15164352 6.82775589 -1.15802338 7.65233795 -1.16459656 8.50190735 C-1.16570938 9.39459824 -1.1668222 10.28728912 -1.16796875 11.20703125 C-1.17129715 12.12457687 -1.17462555 13.0421225 -1.17805481 13.98747253 C-1.18312369 15.9318288 -1.18546315 17.87619378 -1.18530273 19.82055664 C-1.18748349 22.79002328 -1.20562375 25.75911504 -1.22460938 28.72851562 C-1.22754447 30.61718623 -1.22952849 32.5058586 -1.23046875 34.39453125 C-1.23765427 35.28114944 -1.24483978 36.16776764 -1.25224304 37.08125305 C-1.23593334 41.50262335 -1.0854611 44.98043775 1 49 C-5.80527325 48.1049754 -10.60094613 46.42549978 -15 41 C-19.56270963 33.99442371 -22.54757077 27.41071073 -21 19 C-18.7624222 10.29830856 -14.36597677 4.73943641 -6.8125 0 C-3.92716669 -1.02589629 -2.77962118 -1.17599358 0 0 Z " fill="#DEDDD8" transform="translate(601,510)"/>
<path d="M0 0 C6.64744427 0.63308993 10.77128742 3.46011828 15.1875 8.3125 C19.85076998 14.10180893 21.707469 19.61152194 21.47265625 27.0234375 C20.30438233 34.38066663 16.83970818 41.0219496 10.9375 45.625 C8.09176783 47.46603665 5.30419062 49.15035098 2 50 C1.01 49.67 0.02 49.34 -1 49 C-0.34 48.01 0.32 47.02 1 46 C1.2948525 43.98344864 1.2948525 43.98344864 1.24291992 41.75976562 C1.24599655 40.90878296 1.24907318 40.05780029 1.25224304 39.18103027 C1.24505753 38.26535278 1.23787201 37.34967529 1.23046875 36.40625 C1.23001053 35.46317993 1.22955231 34.52010986 1.2290802 33.54846191 C1.22605925 31.55459332 1.21817764 29.56072706 1.20581055 27.56689453 C1.1875714 24.51195937 1.18530078 21.45732764 1.18554688 18.40234375 C1.18063088 16.46614321 1.17480221 14.52994472 1.16796875 12.59375 C1.16685593 11.67807251 1.1657431 10.76239502 1.16459656 9.81896973 C1.15821671 8.96798706 1.15183685 8.11700439 1.14526367 7.24023438 C1.14145187 6.49205444 1.13764008 5.74387451 1.13371277 4.97302246 C1.06858948 2.78683771 1.06858948 2.78683771 0 0 Z " fill="#DCDBD6" transform="translate(511,509)"/>
<path d="M0 0 C7 0 7 0 9.5625 0.5625 C10.366875 0.706875 11.17125 0.85125 12 1 C12.33 0.67 12.66 0.34 13 0 C15.01964199 -0.07244053 17.04167124 -0.08377188 19.0625 -0.0625 C20.16722656 -0.05347656 21.27195312 -0.04445313 22.41015625 -0.03515625 C23.26480469 -0.02355469 24.11945312 -0.01195312 25 0 C25.625 2.375 25.625 2.375 26 5 C25.34 5.66 24.68 6.32 24 7 C24.33 7.33 24.66 7.66 25 8 C25.04092937 10.33297433 25.04241723 12.66705225 25 15 C22.525 14.505 22.525 14.505 20 14 C19.67 14.66 19.34 15.32 19 16 C17.35 16 15.7 16 14 16 C14.33 15.01 14.66 14.02 15 13 C14.34 12.67 13.68 12.34 13 12 C12.67 12.99 12.34 13.98 12 15 C10.35 14.67 8.7 14.34 7 14 C6.67 14.66 6.34 15.32 6 16 C4.35 16 2.7 16 1 16 C2 14 3 12 4 10 C3.01 10.33 2.02 10.66 1 11 C1.33 10.01 1.66 9.02 2 8 C1.34 7.67 0.68 7.34 0 7 C0 4.69 0 2.38 0 0 Z " fill="#61605E" transform="translate(527,592)"/>
<path d="M0 0 C2.5 1.5 2.5 1.5 4 4 C4.58651804 8.61882953 4.57342659 10.85314682 2.5 15 C-0.36133237 17.28906589 -2.36602972 17.73368112 -6.02734375 17.48046875 C-9.55479057 16.62130844 -11.00100675 14.93602134 -13 12 C-13.7878128 7.5882483 -13.52975133 5.77807226 -11 2.0625 C-6.84919686 -0.79117716 -4.9698922 -0.7099846 0 0 Z " fill="#D9D8D3" transform="translate(572,482)"/>
<path d="M0 0 C0.625 2.375 0.625 2.375 1 5 C0.34 5.66 -0.32 6.32 -1 7 C-0.67 7.33 -0.34 7.66 0 8 C0.04092937 10.33297433 0.04241723 12.66705225 0 15 C-2.64 14.67 -5.28 14.34 -8 14 C-7.67 12.02 -7.34 10.04 -7 8 C-7.66 7.67 -8.32 7.34 -9 7 C-8.67 5.02 -8.34 3.04 -8 1 C-5.07175348 0.02391783 -3.04386724 -0.08226668 0 0 Z " fill="#323232" transform="translate(552,592)"/>
<path d="M0 0 C4.49652778 -0.36458333 4.49652778 -0.36458333 6.8125 1.3125 C8 3 8 3 8 6 C8.99 6.66 9.98 7.32 11 8 C10.01 8.66 9.02 9.32 8 10 C6.78715124 13.05429073 6.78715124 13.05429073 6 16 C4.35 16 2.7 16 1 16 C2 14 3 12 4 10 C3.01 10.33 2.02 10.66 1 11 C1.33 10.01 1.66 9.02 2 8 C1.34 7.67 0.68 7.34 0 7 C0 4.69 0 2.38 0 0 Z " fill="#4F4F4D" transform="translate(527,592)"/>
<path d="M0 0 C3 0.25 3 0.25 5 2.25 C4.625 5.875 4.625 5.875 4 9.25 C0.625 9.375 0.625 9.375 -3 9.25 C-5 7.25 -5 7.25 -5.25 4.75 C-4.86630891 0.91308908 -3.76694968 0.31391247 0 0 Z " fill="#C1C0BC" transform="translate(564,569.75)"/>
<path d="M0 0 C2.875 -0.125 2.875 -0.125 6 0 C8 2 8 2 8.25 4.5 C8 7 8 7 6 9 C2.875 9.125 2.875 9.125 0 9 C0 6.03 0 3.06 0 0 Z " fill="#C0BFBA" transform="translate(543,570)"/>
<path d="M0 0 C0.33 0 0.66 0 1 0 C1 18.81 1 37.62 1 57 C0.67 57 0.34 57 0 57 C-0.33 41.16 -0.66 25.32 -1 9 C-1.99 9.495 -1.99 9.495 -3 10 C-2.01 6.7 -1.02 3.4 0 0 Z " fill="#F3B456" transform="translate(551,491)"/>
<path d="M0 0 C1.65 0 3.3 0 5 0 C5 0.99 5 1.98 5 3 C4.01 2.67 3.02 2.34 2 2 C1.67 2.66 1.34 3.32 1 4 C2.65 4.33 4.3 4.66 6 5 C6 6.32 6 7.64 6 9 C4.35 9.33 2.7 9.66 1 10 C-1.08351471 6.09340991 -1.13112345 4.24171294 0 0 Z " fill="#BAB8B4" transform="translate(512,570)"/>
<path d="M0 0 C1.65 0 3.3 0 5 0 C5.38218767 1.65614657 5.71395102 3.32457024 6 5 C5 6 5 6 2.4375 6.0625 C1.2309375 6.0315625 1.2309375 6.0315625 0 6 C0 4.02 0 2.04 0 0 Z " fill="#858482" transform="translate(547,592)"/>
<path d="M0 0 C1.2065625 0.0309375 1.2065625 0.0309375 2.4375 0.0625 C2.4375 1.7125 2.4375 3.3625 2.4375 5.0625 C0.7875 5.3925 -0.8625 5.7225 -2.5625 6.0625 C-2.94468767 4.40635343 -3.27645102 2.73792976 -3.5625 1.0625 C-2.5625 0.0625 -2.5625 0.0625 0 0 Z " fill="#353534" transform="translate(564.5625,571.9375)"/>
<path d="M0 0 C1.32 0 2.64 0 4 0 C4.33 1.65 4.66 3.3 5 5 C3.35 5.33 1.7 5.66 0 6 C-0.38218767 4.34385343 -0.71395102 2.67542976 -1 1 C-0.67 0.67 -0.34 0.34 0 0 Z " fill="#807F7C" transform="translate(535,601)"/>
<path d="M0 0 C2.64 0 5.28 0 8 0 C8 0.66 8 1.32 8 2 C7.01 2 6.02 2 5 2 C5 4.31 5 6.62 5 9 C4.34 9 3.68 9 3 9 C3 6.69 3 4.38 3 2 C2.01 2 1.02 2 0 2 C0 1.34 0 0.68 0 0 Z " fill="#B8B7B3" transform="translate(521,570)"/>
<path d="M0 0 C0.33 0 0.66 0 1 0 C1 6.93 1 13.86 1 21 C0.67 21 0.34 21 0 21 C-0.33 17.04 -0.66 13.08 -1 9 C-1.99 9.495 -1.99 9.495 -3 10 C-2.01 6.7 -1.02 3.4 0 0 Z " fill="#E4AA53" transform="translate(551,491)"/>
<path d="M0 0 C2.475 0.495 2.475 0.495 5 1 C4.67 2.65 4.34 4.3 4 6 C2.68 6 1.36 6 0 6 C0 4.02 0 2.04 0 0 Z " fill="#414140" transform="translate(544,572)"/>
<path d="M0 0 C1.65 0 3.3 0 5 0 C4.814375 0.61875 4.62875 1.2375 4.4375 1.875 C3.76313824 4.04160178 3.76313824 4.04160178 5 6 C3.35 6 1.7 6 0 6 C0 4.02 0 2.04 0 0 Z " fill="#AAA9A5" transform="translate(527,592)"/>
<path d="M0 0 C1.32 0.33 2.64 0.66 4 1 C3.01 1.495 3.01 1.495 2 2 C2.99 2.33 3.98 2.66 5 3 C5 3.99 5 4.98 5 6 C3.35 6 1.7 6 0 6 C0 4.02 0 2.04 0 0 Z " fill="#9A9996" transform="translate(534,592)"/>
<path d="M0 0 C1.98 0 3.96 0 6 0 C6 1.32 6 2.64 6 4 C4.35 3.67 2.7 3.34 1 3 C0.67 2.01 0.34 1.02 0 0 Z " fill="#767573" transform="translate(511,576)"/>
<path d="M0 0 C0.66 0 1.32 0 2 0 C2 1.98 2 3.96 2 6 C0.68 5.67 -0.64 5.34 -2 5 C-1.125 1.125 -1.125 1.125 0 0 Z " fill="#A09E9B" transform="translate(550,601)"/>
<path d="M0 0 C1.32 0.66 2.64 1.32 4 2 C3.01 2.33 2.02 2.66 1 3 C-0.20882096 5.00016466 -0.20882096 5.00016466 -1 7 C-1.33 7 -1.66 7 -2 7 C-2.125 4.625 -2.125 4.625 -2 2 C-1.34 1.34 -0.68 0.68 0 0 Z " fill="#A8A7A4" transform="translate(561,570)"/>
</svg>
