<?xml version="1.0" standalone="no"?>
<!DOCTYPE svg PUBLIC "-//W3C//DTD SVG 20010904//EN"
 "http://www.w3.org/TR/2001/REC-SVG-20010904/DTD/svg10.dtd">
<svg version="1.0" xmlns="http://www.w3.org/2000/svg"
 width="1080.000000pt" height="1080.000000pt" viewBox="0 0 1080.000000 1080.000000"
 preserveAspectRatio="xMidYMid meet">

<g transform="translate(0.000000,1080.000000) scale(0.100000,-0.100000)"
fill="#000000" stroke="none">
<path d="M0 5400 l0 -5400 5400 0 5400 0 0 5400 0 5400 -5400 0 -5400 0 0
-5400z m5715 490 c15 -6 32 -24 41 -45 20 -48 0 -96 -46 -115 -29 -12 -37 -11
-69 6 -63 34 -64 119 -1 151 30 15 41 16 75 3z m-187 -697 c1 -1 9 -9 18 -17
8 -9 22 -16 30 -16 12 0 14 37 14 230 l0 230 90 0 90 0 0 -241 0 -240 -92 2
c-51 1 -112 -4 -135 -11 -74 -23 -144 6 -180 73 -14 26 -18 68 -21 219 l-4
187 34 14 c53 22 104 73 125 122 l18 45 5 -298 c3 -163 7 -298 8 -299z m-1122
406 c52 -48 57 -71 62 -271 l5 -188 -92 0 -91 0 0 195 c0 214 -5 237 -54 255
l-31 12 35 14 c53 21 135 13 166 -17z m320 0 c47 -43 53 -72 54 -270 l2 -184
-86 -3 -86 -3 0 193 c0 211 -5 233 -55 257 l-30 14 35 13 c54 21 135 12 166
-17z m288 14 c-11 -23 -12 -440 -1 -470 l8 -22 -46 15 c-26 10 -64 34 -89 60
-124 123 -92 325 63 406 62 33 77 35 65 11z m182 -19 c52 -29 88 -76 110 -143
40 -123 -22 -255 -146 -310 -50 -22 -56 -21 -40 8 13 25 10 436 -4 465 -8 16
-6 17 15 11 13 -4 42 -18 65 -31z m808 19 c-13 -27 -17 -406 -5 -450 6 -20 9
-38 8 -39 -7 -8 -97 42 -125 69 -126 120 -96 330 57 409 62 33 76 35 65 11z
m177 -14 c143 -72 172 -283 55 -402 -46 -48 -146 -94 -129 -59 11 23 10 452
-1 476 -8 16 -6 17 15 11 13 -4 40 -16 60 -26z m587 11 c61 -37 72 -80 72
-287 l0 -183 -90 0 -90 0 0 203 c0 167 -3 206 -16 225 -8 12 -21 22 -29 22
-29 0 -24 20 7 29 56 16 111 12 146 -9z m-2618 -230 l0 -240 -90 0 -90 0 0
240 0 240 90 0 90 0 0 -240z m2370 0 l0 -240 -90 0 -90 0 0 233 c0 129 3 237
7 240 3 4 44 7 90 7 l83 0 0 -240z m-1340 -387 c0 -13 -3 -14 -12 -5 -16 16
-41 15 -36 0 3 -7 15 -15 29 -18 36 -9 32 -44 -5 -48 -29 -4 -55 12 -42 25 4
4 11 1 16 -6 4 -8 15 -11 25 -8 20 8 10 27 -15 27 -22 0 -34 15 -26 35 8 22
66 20 66 -2z m98 10 c-13 -3 -18 -15 -18 -44 0 -21 -4 -39 -10 -39 -5 0 -10
18 -10 39 0 29 -5 41 -17 44 -10 3 2 5 27 5 25 0 37 -2 28 -5z m67 -63 c21
-17 35 -3 35 36 0 19 5 34 10 34 14 0 12 -53 -3 -74 -8 -11 -23 -17 -38 -14
-21 3 -24 8 -25 48 -1 28 0 33 3 13 2 -17 10 -37 18 -43z m153 58 c7 -7 12
-21 12 -33 0 -29 -19 -45 -52 -45 -27 0 -28 2 -28 45 0 43 1 45 28 45 15 0 33
-5 40 -12z m62 -33 c0 -25 -4 -45 -10 -45 -5 0 -10 20 -10 45 0 25 5 45 10 45
6 0 10 -20 10 -45z m118 33 c16 -16 15 -53 -2 -67 -8 -7 -27 -11 -43 -9 -34 4
-54 47 -33 72 15 19 61 21 78 4z m-378 -218 c-21 -7 -22 -8 -5 -9 l20 -2 -20
-11 c-19 -12 -19 -12 5 -19 l25 -7 -27 -1 c-25 -1 -28 3 -28 29 0 26 3 30 28
29 l27 -1 -25 -8z m65 1 c-19 -8 -19 -8 3 -15 13 -4 21 -13 19 -19 -4 -15 -47
-22 -47 -9 0 6 10 8 22 4 14 -3 19 -2 14 6 -4 7 -14 12 -22 12 -8 0 -14 7 -14
15 0 9 9 15 23 14 21 0 21 -1 2 -8z m88 2 c-7 -2 -13 -16 -13 -29 0 -34 -17
-30 -22 6 -4 27 -2 30 21 29 14 0 20 -3 14 -6z m75 -17 c4 -20 -13 -36 -40
-36 -13 0 -18 8 -18 31 0 27 3 30 27 27 18 -2 29 -10 31 -22z m-208 -80 c0 -8
-5 -18 -11 -22 -8 -4 -7 -9 2 -15 10 -6 7 -9 -10 -9 -23 0 -23 1 -8 18 21 23
22 36 2 28 -8 -3 -15 -1 -15 4 0 6 9 10 20 10 11 0 20 -6 20 -14z m70 -16 c0
-23 -5 -30 -19 -30 -20 0 -37 32 -26 50 3 5 15 10 26 10 14 0 19 -7 19 -30z
m65 20 c4 -6 2 -17 -5 -24 -8 -11 -8 -15 2 -19 7 -3 0 -6 -16 -6 l-29 -1 24
27 c18 20 20 25 7 20 -10 -4 -18 -2 -18 3 0 13 27 13 35 0z m65 -19 c0 -24 -3
-28 -20 -24 -23 6 -26 23 -8 41 19 19 28 14 28 -17z"/>
<path d="M5445 4988 c-2 -7 -3 -22 -1 -33 3 -19 7 -21 37 -16 6 0 9 13 7 28
-3 30 -34 45 -43 21z"/>
<path d="M5617 4994 c-13 -13 -7 -52 8 -58 27 -10 46 5 43 33 -3 26 -35 41
-51 25z"/>
<path d="M5482 4763 c2 -10 10 -18 18 -18 22 0 18 29 -3 33 -14 3 -18 -1 -15
-15z"/>
<path d="M5355 4680 c-7 -12 2 -30 16 -30 5 0 9 9 9 20 0 21 -15 27 -25 10z"/>
<path d="M5490 4669 c0 -5 5 -7 10 -4 6 3 10 8 10 11 0 2 -4 4 -10 4 -5 0 -10
-5 -10 -11z"/>
</g>
</svg>
