<?xml version="1.0" standalone="no"?>
<!DOCTYPE svg PUBLIC "-//W3C//DTD SVG 20010904//EN"
 "http://www.w3.org/TR/2001/REC-SVG-20010904/DTD/svg10.dtd">
<svg version="1.0" xmlns="http://www.w3.org/2000/svg"
 width="1080.000000pt" height="1080.000000pt" viewBox="0 0 1080.000000 1080.000000"
 preserveAspectRatio="xMidYMid meet">

<g transform="translate(0.000000,1080.000000) scale(0.100000,-0.100000)"
fill="#000000" stroke="none">
<path d="M5620 5955 c-28 -30 -31 -87 -5 -115 25 -27 68 -34 103 -16 33 17 42
34 42 80 0 70 -91 103 -140 51z"/>
<path d="M4263 5709 c-35 -10 -53 -29 -29 -29 8 0 24 -12 35 -26 20 -25 21
-40 21 -225 l0 -199 85 0 85 0 0 186 c0 204 -7 236 -60 274 -33 24 -94 32
-137 19z"/>
<path d="M4583 5709 c-35 -10 -53 -29 -29 -29 8 0 24 -12 35 -26 20 -25 21
-40 21 -225 l0 -199 85 0 85 0 0 180 c0 199 -10 244 -60 280 -33 24 -94 32
-137 19z"/>
<path d="M6633 5708 c-41 -13 -41 -18 -3 -40 l30 -17 0 -211 0 -210 91 0 91 0
-4 194 c-3 178 -5 197 -24 222 -46 63 -113 85 -181 62z"/>
<path d="M4955 5693 c-142 -74 -186 -255 -94 -382 27 -38 89 -82 137 -96 20
-6 21 -4 12 20 -13 35 -13 431 0 456 9 15 7 19 -7 19 -10 -1 -31 -8 -48 -17z"/>
<path d="M5120 5691 c13 -25 13 -421 0 -455 -11 -31 -13 -31 42 -7 149 66 201
251 107 381 -48 67 -180 137 -149 81z"/>
<path d="M5927 5680 c-177 -112 -159 -367 32 -451 24 -11 46 -18 48 -16 2 2
-1 16 -7 31 -13 35 -13 406 0 440 8 22 7 26 -8 26 -10 0 -39 -13 -65 -30z"/>
<path d="M6111 5693 c20 -23 20 -427 1 -461 -13 -23 -12 -24 10 -17 152 46
231 223 160 361 -33 64 -121 134 -168 134 -14 0 -15 -2 -3 -17z"/>
<path d="M3970 5465 l0 -235 90 0 90 0 0 235 0 235 -90 0 -90 0 0 -235z"/>
<path d="M5590 5465 l0 -235 90 0 90 0 0 235 0 235 -90 0 -90 0 0 -235z"/>
<path d="M6350 5465 l0 -235 85 0 85 0 0 235 0 235 -85 0 -85 0 0 -235z"/>
<path d="M5120 5085 c-15 -18 -6 -31 24 -37 26 -4 33 -28 9 -28 -11 0 -25 6
-32 13 -11 10 -13 9 -9 -3 6 -19 70 -20 76 -2 2 8 -9 18 -27 25 -17 6 -31 17
-31 24 0 17 22 17 39 1 11 -11 13 -10 9 2 -6 21 -42 24 -58 5z"/>
<path d="M5223 5093 c12 -3 17 -15 17 -44 0 -21 5 -39 10 -39 6 0 10 16 10 35
0 22 6 38 18 44 13 8 7 10 -28 10 -25 -1 -37 -3 -27 -6z"/>
<path d="M5324 5060 c1 -43 2 -45 31 -45 29 0 30 2 31 45 l2 45 -7 -40 c-5
-31 -10 -40 -26 -40 -16 0 -21 9 -26 40 l-7 40 2 -45z"/>
<path d="M5430 5055 c0 -43 1 -45 28 -45 15 0 33 5 40 12 28 28 1 78 -44 78
-22 0 -24 -4 -24 -45z m54 19 c20 -20 5 -54 -24 -54 -15 0 -20 7 -20 28 0 44
17 54 44 26z"/>
<path d="M5547 5093 c-11 -10 -8 -83 3 -83 6 0 10 20 10 45 0 46 -2 50 -13 38z"/>
<path d="M5606 5084 c-19 -18 -20 -28 -6 -55 12 -22 59 -26 78 -7 26 26 1 78
-38 78 -10 0 -26 -7 -34 -16z m52 -3 c8 -4 12 -19 10 -32 -2 -18 -9 -24 -28
-24 -19 0 -26 6 -28 24 -3 20 11 41 28 41 3 0 11 -4 18 -9z"/>
<path d="M5270 4850 c0 -25 4 -30 23 -29 16 1 18 2 5 6 -26 7 -22 41 5 46 19
4 18 4 -5 6 -25 1 -28 -3 -28 -29z"/>
<path d="M5345 4869 c-4 -6 -4 -13 -1 -16 3 -4 6 -1 6 5 0 6 8 13 18 15 15 4
15 5 0 6 -9 0 -20 -4 -23 -10z"/>
<path d="M5416 4872 c7 -4 14 -18 16 -32 3 -23 4 -22 9 8 5 27 3 32 -15 32
-13 0 -17 -3 -10 -8z"/>
<path d="M5498 4870 c12 -5 22 -17 23 -27 0 -11 3 -13 6 -5 7 17 -15 42 -36
41 -11 0 -9 -3 7 -9z"/>
<path d="M5368 4843 c6 -2 9 -10 6 -15 -4 -7 -2 -8 5 -4 13 9 5 26 -12 25 -9
0 -8 -2 1 -6z"/>
<path d="M5488 4823 c7 -3 16 -2 19 1 4 3 -2 6 -13 5 -11 0 -14 -3 -6 -6z"/>
<path d="M5285 4780 c-3 -6 1 -7 9 -4 21 8 20 -5 -1 -28 -9 -10 -12 -18 -7
-18 13 0 36 39 29 50 -8 13 -22 13 -30 0z"/>
<path d="M5352 4778 c-7 -7 -12 -16 -12 -22 0 -5 7 -1 15 10 13 16 16 17 26 4
9 -12 10 -12 7 -1 -6 20 -21 24 -36 9z"/>
<path d="M5420 4782 c0 -4 9 -8 19 -8 11 0 17 4 15 8 -3 4 -12 8 -20 8 -8 0
-14 -4 -14 -8z"/>
<path d="M5495 4780 c-3 -5 -1 -10 4 -10 6 0 11 5 11 10 0 6 -2 10 -4 10 -3 0
-8 -4 -11 -10z"/>
<path d="M5430 4745 c-7 -9 -8 -15 -2 -15 5 0 12 7 16 15 3 8 4 15 2 15 -2 0
-9 -7 -16 -15z"/>
<path d="M5480 4749 c0 -5 9 -9 20 -9 11 0 20 2 20 4 0 2 -9 6 -20 9 -11 3
-20 1 -20 -4z"/>
<path d="M5375 4740 c-3 -5 -1 -10 4 -10 6 0 11 5 11 10 0 6 -2 10 -4 10 -3 0
-8 -4 -11 -10z"/>
</g>
</svg>
